<?xml version="1.0" encoding="utf-8"?>
<!-- Generator: Adobe Illustrator 23.0.2, SVG Export Plug-In . SVG Version: 6.00 Build 0)  -->
<svg version="1.1" id="Layer_1" xmlns="http://www.w3.org/2000/svg" xmlns:xlink="http://www.w3.org/1999/xlink" x="0px" y="0px"
	 viewBox="0 0 183.23 183.23" style="enable-background:new 0 0 183.23 183.23;" xml:space="preserve">
<style type="text/css">
	.st0{fill:#FFFFFF;}
</style>
<rect width="183.23" height="183.23"/>
<path class="st0" d="M84.41,43.04C83.88,43.02,83.35,43,82.82,43C56.1,43,34.45,64.65,34.45,91.37s21.66,48.37,48.37,48.37
	c0.79,0,1.57-0.02,2.34-0.06l-48.7-48.7L84.41,43.04z"/>
<path class="st0" d="M87.76,152.16c0.67,0.02,1.34,0.05,2.01,0.05c33.82,0,61.23-27.41,61.23-61.23s-27.41-61.23-61.23-61.23
	c-0.99,0-1.98,0.03-2.97,0.08l61.64,61.64L87.76,152.16z"/>
<path class="st0" d="M85.5,126.3c0.38,0.01,0.77,0.03,1.15,0.03c19.37,0,35.07-15.92,35.07-35.56s-15.7-35.56-35.07-35.56
	c-0.57,0-1.14,0.02-1.7,0.04l35.31,35.8L85.5,126.3z"/>
<path class="st0" d="M86.41,67.4c-0.27-0.01-0.54-0.02-0.82-0.02c-13.77,0-24.94,10.74-24.94,23.99s11.17,23.99,24.94,23.99
	c0.41,0,0.81-0.01,1.21-0.03L61.69,91.18L86.41,67.4z"/>
</svg>
